<?xml version="1.0" standalone="no"?>
<!DOCTYPE svg PUBLIC "-//W3C//DTD SVG 20010904//EN"
 "http://www.w3.org/TR/2001/REC-SVG-20010904/DTD/svg10.dtd">
<svg version="1.0" xmlns="http://www.w3.org/2000/svg"
 width="360.000000pt" height="360.000000pt" viewBox="0 0 360.000000 360.000000"
 preserveAspectRatio="xMidYMid meet">
<metadata>
Created by potrace 1.11, written by Peter Selinger 2001-2013
</metadata>
<g transform="translate(0.000000,360.000000) scale(0.100000,-0.100000)"
fill="#000000" stroke="none">
<path d="M620 3256 c-5 -5 -10 -7 -10 -4 0 11 -100 -22 -154 -49 -58 -29 -154
-122 -180 -173 -39 -77 -51 -176 -32 -259 10 -45 51 -116 91 -160 223 -244
654 -186 787 106 86 190 -12 410 -225 503 -26 12 -58 23 -70 26 -12 2 -35 7
-52 10 -53 11 -144 11 -155 0z"/>
<path d="M1728 3264 c-2 -1 -18 -6 -36 -9 -107 -18 -205 -73 -276 -154 -68
-78 -89 -136 -90 -241 -1 -75 3 -93 30 -150 55 -116 177 -210 311 -240 51 -12
163 -14 203 -5 14 3 36 8 50 11 87 18 211 107 262 189 67 108 75 244 20 351
-33 64 -93 131 -152 169 -40 25 -168 74 -197 74 -10 0 -41 2 -70 4 -29 3 -54
3 -55 1z"/>
<path d="M2765 3253 c-178 -40 -314 -163 -350 -318 -56 -244 169 -481 455
-477 64 1 76 3 135 18 94 23 211 107 262 187 144 229 10 509 -278 583 -81 21
-151 23 -224 7z"/>
<path d="M650 2198 c-180 -21 -311 -110 -381 -258 -25 -52 -31 -78 -32 -135 0
-38 2 -83 6 -99 12 -54 60 -136 110 -186 53 -54 169 -117 233 -128 53 -9 190
-9 239 1 102 20 235 110 290 198 159 249 -20 567 -340 605 -27 4 -52 7 -55 8
-3 1 -34 -1 -70 -6z"/>
<path d="M1808 2205 c-2 -1 -28 -5 -58 -9 -119 -13 -232 -70 -308 -155 -134
-152 -126 -364 19 -516 94 -99 222 -147 374 -141 112 5 123 7 213 51 206 102
292 321 202 511 -20 42 -53 87 -85 118 -50 49 -155 110 -206 119 -13 3 -40 8
-59 12 -44 8 -89 13 -92 10z"/>
<path d="M2864 2199 c-151 -20 -281 -100 -351 -217 -132 -222 -19 -483 252
-578 36 -13 81 -18 160 -18 162 0 260 39 367 147 44 45 95 143 99 192 2 17 6
35 9 40 6 9 6 51 0 58 -1 1 -4 16 -6 32 -9 56 -63 155 -111 203 -105 105 -271
161 -419 141z"/>
<path d="M590 1113 c-168 -41 -315 -175 -346 -315 -30 -138 18 -276 131 -376
69 -60 174 -108 257 -117 18 -2 35 -4 38 -5 13 -6 37 -5 58 2 14 5 22 3 22 -3
0 -8 4 -8 13 -1 6 5 32 13 57 17 112 18 250 115 305 216 100 185 44 388 -144
513 -103 69 -269 99 -391 69z"/>
<path d="M1765 1122 c-205 -25 -364 -150 -408 -322 -53 -205 97 -427 324 -480
30 -7 66 -16 80 -20 16 -5 31 -4 37 2 6 6 12 6 17 -2 5 -8 10 -8 21 1 9 7 14
8 14 1 0 -6 16 -5 45 4 25 7 49 14 53 14 59 7 163 64 219 121 183 181 152 451
-68 598 -94 63 -229 96 -334 83z"/>
<path d="M2843 1118 c-250 -38 -427 -263 -377 -478 34 -146 139 -258 292 -309
89 -30 222 -48 222 -29 0 4 8 6 18 6 83 -3 225 70 305 157 34 38 84 139 90
185 3 19 6 35 7 35 1 0 3 12 4 28 2 15 -1 27 -6 27 -5 0 -7 4 -3 9 9 15 -33
130 -65 176 -100 145 -295 223 -487 193z"/>
</g>
</svg>
