<svg id="Camada_1" data-name="Camada 1" xmlns="http://www.w3.org/2000/svg" viewBox="0 0 844.25 189.19"><defs><style>.cls-1{fill:#2d292a;}.cls-2{fill:#df1162;}</style></defs><title>gosites</title><path class="cls-1" d="M435.13,151.35a58.09,58.09,0,0,0,35.47,11.82c18.92,0,37.84-11.82,37.84-30.74,0-11.82-7.09-21.28-23.65-30.74-21.28-11.82-33.11-26-33.11-42.57,0-30.74,26-49.66,56.76-49.66,16.55,0,28.38,4.73,35.47,9.46l-7.09,16.55c-4.73-2.36-16.55-7.09-28.38-7.09-21.28,0-33.11,14.19-33.11,28.38s9.46,21.28,26,30.74c21.28,11.82,33.11,23.65,33.11,44.93,0,28.38-23.65,52-61.49,52-16.55,0-33.11-4.73-40.2-11.82Z"/><path class="cls-1" d="M536.82,177.36L560.47,56.76h21.28L558.11,177.36H536.82Zm26-156.08c0-7.09,7.09-14.19,14.19-14.19s11.82,4.73,11.82,14.19c0,7.09-7.09,14.19-14.19,14.19s-11.82-4.73-11.82-14.19"/><path class="cls-1" d="M640.88,23.65l-7.09,33.11h28.38L659.8,73.31H631.42l-11.82,59.12c0,7.09-2.36,14.19-2.36,18.92,0,7.09,2.36,11.82,11.82,11.82h9.46v16.55c-4.73,2.36-9.46,2.36-16.55,2.36-18.92,0-26-11.82-26-23.65,0-7.09,0-14.19,2.36-23.65l11.82-61.49H593.58l2.36-16.55H612.5l4.73-28.38Z"/><path class="cls-1" d="M740.2,170.27a91.46,91.46,0,0,1-40.2,9.46c-33.11,0-47.3-21.28-47.3-49.66,0-37.84,26-78,66.22-78,23.65,0,35.47,14.19,35.47,30.74,0,30.74-35.47,40.2-80.41,40.2,0,4.73,0,16.55,2.36,23.65,4.73,11.82,14.19,16.55,26,16.55,14.19,0,26-4.73,33.11-9.46ZM718.92,70.95c-18.92,0-35.47,18.92-40.2,37.84,33.11,0,59.12-4.73,59.12-23.65-2.36-9.46-9.46-14.19-18.92-14.19"/><path class="cls-1" d="M761.49,156.08c4.73,2.36,16.55,7.09,26,7.09,14.19,0,23.65-9.46,23.65-18.92s-4.73-14.19-16.55-21.28c-14.19-7.09-21.28-18.92-21.28-30.74,0-21.28,18.92-37.84,44.93-37.84,11.82,0,21.28,2.36,26,7.09L839.52,78a47.22,47.22,0,0,0-21.28-4.73c-11.82,0-21.28,7.09-21.28,18.92,0,9.46,4.73,14.19,16.55,21.28,14.19,7.09,23.65,18.92,23.65,30.74,0,26-21.28,40.2-47.3,40.2-14.19,0-23.65-4.73-30.74-7.09Z"/><path class="cls-2" d="M165.54,177.36c-16.55,4.73-44.93,11.82-70.95,11.82s-49.66-7.09-66.22-18.92S0,137.16,0,108.78C0,73.31,14.19,47.3,40.2,28.38c23.65-16.55,54.39-26,89.86-26,26,0,49.66,4.73,56.76,9.46L172.64,52c-9.46-4.73-26-9.46-44.93-9.46S92.23,47.3,80.41,54.39c-16.55,9.46-26,28.38-26,49.66,0,30.74,21.28,44.93,49.66,44.93,9.46,0,16.55-2.36,18.92-2.36l4.73-28.38H99.32l7.09-37.84h75.68Z"/><path class="cls-2" d="M253,189.19c-49.66,0-85.13-30.74-85.13-82.77,0-30.74,11.82-59.12,30.74-78S245.95,0,276.69,0c49.66,0,85.13,28.38,85.13,82.77,0,30.74-11.82,59.12-30.74,75.68-18.92,18.92-44.93,30.74-78,30.74h0Zm7.09-40.2c11.82,0,23.65-4.73,30.74-14.19C302.7,123,309.8,104.05,309.8,85.13c0-26-9.46-47.3-37.84-47.3-11.82,0-23.65,4.73-33.11,14.19C227,63.85,219.93,82.77,219.93,101.69c0,30.74,14.19,47.3,40.2,47.3h0Z"/><path class="cls-2" d="M380.74,189.19c-14.19,0-26-9.46-26-26,0-18.92,11.82-33.11,33.11-33.11,14.19,0,26,9.46,26,26,0,21.28-14.19,33.11-33.11,33.11h0ZM373.65,123L387.84,2.36H437.5L406.75,123H373.65Z"/></svg>