<svg id="Camada_1" data-name="Camada 1" xmlns="http://www.w3.org/2000/svg" viewBox="0 0 32 26.13"><defs><style>.cls-1{fill:#215594;}.cls-1,.cls-2{fill-rule:evenodd;}.cls-2{fill:#bf2f77;}.cls-3{fill:#254377;}</style></defs><title>icone-flickr</title><path class="cls-1" d="M5.5,0A5.5,5.5,0,1,1,0,5.5,5.5,5.5,0,0,1,5.5,0Z"/><path class="cls-2" d="M26.5,0A5.5,5.5,0,1,1,21,5.5,5.5,5.5,0,0,1,26.5,0Z"/><path class="cls-3" d="M2.07,26V20.62h-1V19.13h1V18.42a2.32,2.32,0,0,1,.71-1.82,2.92,2.92,0,0,1,2-.63,3.7,3.7,0,0,1,.5,0l0.56,0.1L5.69,17.68l-0.31,0L5,17.61a0.85,0.85,0,0,0-.62.21,0.79,0.79,0,0,0-.21.6v0.71H5.55v1.49H4.22V26H2.07Z"/><path class="cls-3" d="M8.18,26H6V16.1H8.18V26Z"/><path class="cls-3" d="M11.35,17.54H9.2V16.1h2.15v1.44Zm0,8.46H9.2V19.13h2.15V26Z"/><path class="cls-3" d="M15.21,24.48a0.82,0.82,0,0,0,.64-0.23,1,1,0,0,0,.21-0.69h2v0a2.26,2.26,0,0,1-.78,1.83,3,3,0,0,1-2,.71,3,3,0,0,1-2.41-1A3.7,3.7,0,0,1,12,22.64V22.5A3.71,3.71,0,0,1,12.8,20a3,3,0,0,1,2.39-1,2.93,2.93,0,0,1,2.09.73,2.52,2.52,0,0,1,.76,2v0h-2a1.36,1.36,0,0,0-.22-0.8,0.75,0.75,0,0,0-.65-0.31,0.87,0.87,0,0,0-.85.5,3.08,3.08,0,0,0-.24,1.34v0.15A3.07,3.07,0,0,0,14.34,24,0.89,0.89,0,0,0,15.21,24.48Z"/><path class="cls-3" d="M21,23.27H20.67V26H18.53V16.1h2.15v5.55H21l1.47-2.52h2.46l-2.13,3.1L25.22,26H22.77Z"/><path class="cls-3" d="M29.12,21H28.34a1.3,1.3,0,0,0-.6.12,0.8,0.8,0,0,0-.35.35V26H25.24V19.13h2l0.08,1a2.06,2.06,0,0,1,.57-0.84,1.25,1.25,0,0,1,.83-0.3L29,19l0.28,0.05Z"/></svg>